<mxfile host="app.diagrams.net" modified="2022-07-07T18:45:41.122Z" agent="5.0 (X11; Linux x86_64) AppleWebKit/537.36 (KHTML, like Gecko) Chrome/103.0.0.0 Safari/537.36" etag="SdgdKNUbIO38HIxI4aM3" version="20.0.4" type="github">
  <diagram id="C5RBs43oDa-KdzZeNtuy" name="Page-1">
    <mxGraphModel dx="868" dy="432" grid="1" gridSize="10" guides="1" tooltips="1" connect="1" arrows="1" fold="1" page="1" pageScale="1" pageWidth="1169" pageHeight="827" math="0" shadow="0">
      <root>
        <mxCell id="WIyWlLk6GJQsqaUBKTNV-0" />
        <mxCell id="WIyWlLk6GJQsqaUBKTNV-1" parent="WIyWlLk6GJQsqaUBKTNV-0" />
        <mxCell id="RDTARKWvVBVLJ8gn_Zw1-19" value="" style="edgeStyle=orthogonalEdgeStyle;rounded=0;orthogonalLoop=1;jettySize=auto;html=1;endArrow=none;endFill=0;" parent="WIyWlLk6GJQsqaUBKTNV-1" source="RDTARKWvVBVLJ8gn_Zw1-11" target="RDTARKWvVBVLJ8gn_Zw1-18" edge="1">
          <mxGeometry relative="1" as="geometry">
            <Array as="points">
              <mxPoint x="200" y="317" />
              <mxPoint x="200" y="317" />
            </Array>
          </mxGeometry>
        </mxCell>
        <mxCell id="RDTARKWvVBVLJ8gn_Zw1-11" value="&lt;p style=&quot;margin:0px;margin-top:4px;text-align:center;&quot;&gt;&lt;i&gt;&amp;lt;&amp;lt;&lt;/i&gt;boundary&lt;i&gt;&amp;gt;&amp;gt;&lt;/i&gt;&lt;br&gt;&lt;b&gt;Terminal&lt;/b&gt;&lt;/p&gt;&lt;hr size=&quot;1&quot;&gt;&lt;p style=&quot;margin:0px;margin-left:4px;&quot;&gt;&lt;br&gt;&lt;/p&gt;&lt;hr size=&quot;1&quot;&gt;&lt;p style=&quot;margin:0px;margin-left:4px;&quot;&gt;+ efetuarLogin(Type):.&lt;br&gt;+ consultarSaldo(Type):.&lt;/p&gt;&lt;p style=&quot;margin:0px;margin-left:4px;&quot;&gt;+ efetuarSaque():.&lt;/p&gt;&lt;p style=&quot;margin:0px;margin-left:4px;&quot;&gt;+ solicitarDeposito():.&lt;/p&gt;" style="verticalAlign=top;align=left;overflow=fill;fontSize=12;fontFamily=Helvetica;html=1;" parent="WIyWlLk6GJQsqaUBKTNV-1" vertex="1">
          <mxGeometry x="80" y="150" width="140" height="148" as="geometry" />
        </mxCell>
        <mxCell id="RDTARKWvVBVLJ8gn_Zw1-21" value="" style="edgeStyle=orthogonalEdgeStyle;rounded=0;orthogonalLoop=1;jettySize=auto;html=1;endArrow=none;endFill=0;" parent="WIyWlLk6GJQsqaUBKTNV-1" source="RDTARKWvVBVLJ8gn_Zw1-18" target="RDTARKWvVBVLJ8gn_Zw1-20" edge="1">
          <mxGeometry relative="1" as="geometry">
            <Array as="points">
              <mxPoint x="345" y="307" />
              <mxPoint x="345" y="307" />
            </Array>
          </mxGeometry>
        </mxCell>
        <mxCell id="RDTARKWvVBVLJ8gn_Zw1-23" value="" style="edgeStyle=orthogonalEdgeStyle;rounded=0;orthogonalLoop=1;jettySize=auto;html=1;endArrow=none;endFill=0;" parent="WIyWlLk6GJQsqaUBKTNV-1" target="RDTARKWvVBVLJ8gn_Zw1-22" edge="1">
          <mxGeometry relative="1" as="geometry">
            <mxPoint x="175" y="485" as="sourcePoint" />
            <Array as="points">
              <mxPoint x="200" y="485" />
            </Array>
          </mxGeometry>
        </mxCell>
        <mxCell id="RDTARKWvVBVLJ8gn_Zw1-26" value="" style="edgeStyle=orthogonalEdgeStyle;rounded=0;orthogonalLoop=1;jettySize=auto;html=1;endArrow=none;endFill=0;" parent="WIyWlLk6GJQsqaUBKTNV-1" source="RDTARKWvVBVLJ8gn_Zw1-18" target="RDTARKWvVBVLJ8gn_Zw1-25" edge="1">
          <mxGeometry relative="1" as="geometry">
            <Array as="points">
              <mxPoint x="350" y="519" />
              <mxPoint x="350" y="519" />
            </Array>
          </mxGeometry>
        </mxCell>
        <mxCell id="RDTARKWvVBVLJ8gn_Zw1-33" value="" style="edgeStyle=orthogonalEdgeStyle;rounded=0;orthogonalLoop=1;jettySize=auto;html=1;endArrow=none;endFill=0;" parent="WIyWlLk6GJQsqaUBKTNV-1" source="RDTARKWvVBVLJ8gn_Zw1-18" target="RDTARKWvVBVLJ8gn_Zw1-32" edge="1">
          <mxGeometry relative="1" as="geometry">
            <Array as="points">
              <mxPoint x="520" y="339" />
              <mxPoint x="520" y="339" />
            </Array>
          </mxGeometry>
        </mxCell>
        <mxCell id="RDTARKWvVBVLJ8gn_Zw1-18" value="&lt;p style=&quot;margin:0px;margin-top:4px;text-align:center;&quot;&gt;&lt;i&gt;&amp;lt;&amp;lt;&lt;/i&gt;control&lt;i&gt;&amp;gt;&amp;gt;&lt;/i&gt;&lt;br&gt;&lt;b&gt;ControladorCaixa&lt;/b&gt;&lt;/p&gt;&lt;hr size=&quot;1&quot;&gt;&lt;p style=&quot;margin:0px;margin-left:4px;&quot;&gt;&lt;br&gt;&lt;/p&gt;&lt;hr size=&quot;1&quot;&gt;&lt;p style=&quot;margin:0px;margin-left:4px;&quot;&gt;+ efetuarLogin(numConta:.,senha:.):.&lt;br&gt;+ consultarSaldo():.&lt;/p&gt;&lt;p style=&quot;margin:0px;margin-left:4px;&quot;&gt;+ efetuarSaque(quant:.):.&lt;/p&gt;&lt;p style=&quot;margin:0px;margin-left:4px;&quot;&gt;+ solicitarDeposito(quant:.):.&lt;/p&gt;" style="verticalAlign=top;align=left;overflow=fill;fontSize=12;fontFamily=Helvetica;html=1;" parent="WIyWlLk6GJQsqaUBKTNV-1" vertex="1">
          <mxGeometry x="150" y="337" width="210" height="148" as="geometry" />
        </mxCell>
        <mxCell id="RDTARKWvVBVLJ8gn_Zw1-20" value="&lt;p style=&quot;margin:0px;margin-top:4px;text-align:center;&quot;&gt;&lt;i&gt;&amp;lt;&amp;lt;&lt;/i&gt;boundary&lt;i&gt;&amp;gt;&amp;gt;&lt;/i&gt;&lt;br&gt;&lt;b&gt;FronteiraCadastroContas&lt;/b&gt;&lt;/p&gt;&lt;hr size=&quot;1&quot;&gt;&lt;p style=&quot;margin:0px;margin-left:4px;&quot;&gt;&lt;br&gt;&lt;/p&gt;&lt;hr size=&quot;1&quot;&gt;&lt;p style=&quot;margin:0px;margin-left:4px;&quot;&gt;+ obterConta(numConta:.):.&lt;br&gt;+ atualizarConta(numConta:.):.&lt;/p&gt;&lt;p style=&quot;margin:0px;margin-left:4px;&quot;&gt;+ efetuarSaque(quant:.):.&lt;/p&gt;&lt;p style=&quot;margin:0px;margin-left:4px;&quot;&gt;+ solicitarDeposito(quant:.):.&lt;/p&gt;" style="verticalAlign=top;align=left;overflow=fill;fontSize=12;fontFamily=Helvetica;html=1;" parent="WIyWlLk6GJQsqaUBKTNV-1" vertex="1">
          <mxGeometry x="250" y="150" width="210" height="148" as="geometry" />
        </mxCell>
        <mxCell id="RDTARKWvVBVLJ8gn_Zw1-22" value="&lt;p style=&quot;margin:0px;margin-top:4px;text-align:center;&quot;&gt;&lt;i&gt;&amp;lt;&amp;lt;&lt;/i&gt;boundary&lt;i&gt;&amp;gt;&amp;gt;&lt;/i&gt;&lt;br&gt;&lt;b&gt;FronteiraDispensadorNotas&lt;/b&gt;&lt;/p&gt;&lt;hr size=&quot;1&quot;&gt;&lt;p style=&quot;margin:0px;margin-left:4px;&quot;&gt;&lt;br&gt;&lt;/p&gt;&lt;hr size=&quot;1&quot;&gt;&lt;p style=&quot;margin:0px;margin-left:4px;&quot;&gt;+ liberarQuantia(quant:.):.&lt;br&gt;&lt;/p&gt;" style="verticalAlign=top;align=left;overflow=fill;fontSize=12;fontFamily=Helvetica;html=1;" parent="WIyWlLk6GJQsqaUBKTNV-1" vertex="1">
          <mxGeometry x="30" y="529" width="210" height="114" as="geometry" />
        </mxCell>
        <mxCell id="RDTARKWvVBVLJ8gn_Zw1-30" value="" style="edgeStyle=orthogonalEdgeStyle;rounded=0;orthogonalLoop=1;jettySize=auto;html=1;endArrow=diamondThin;endFill=0;" parent="WIyWlLk6GJQsqaUBKTNV-1" source="RDTARKWvVBVLJ8gn_Zw1-25" target="RDTARKWvVBVLJ8gn_Zw1-29" edge="1">
          <mxGeometry relative="1" as="geometry">
            <Array as="points">
              <mxPoint x="415" y="519" />
              <mxPoint x="415" y="519" />
            </Array>
          </mxGeometry>
        </mxCell>
        <mxCell id="RDTARKWvVBVLJ8gn_Zw1-25" value="&lt;p style=&quot;margin:0px;margin-top:4px;text-align:center;&quot;&gt;&lt;i&gt;&amp;lt;&amp;lt;&lt;/i&gt;entity&lt;i&gt;&amp;gt;&amp;gt;&lt;/i&gt;&lt;br&gt;&lt;b&gt;CaixaEletronico&lt;/b&gt;&lt;/p&gt;&lt;hr size=&quot;1&quot;&gt;&lt;p style=&quot;margin:0px;margin-left:4px;&quot;&gt;- quantiaDisponivel:.&lt;/p&gt;&lt;p style=&quot;margin:0px;margin-left:4px;&quot;&gt;- statusLogin:.&lt;/p&gt;&lt;p style=&quot;margin:0px;margin-left:4px;&quot;&gt;- numContaLogin:.&lt;/p&gt;&lt;hr size=&quot;1&quot;&gt;&lt;p style=&quot;margin:0px;margin-left:4px;&quot;&gt;+ atualizarStatusLoginCaixa(numConta:.):.&lt;br&gt;+ obterNumConta():.&lt;/p&gt;&lt;p style=&quot;margin:0px;margin-left:4px;&quot;&gt;+ obterQuantDisponivel():.&lt;/p&gt;&lt;p style=&quot;margin:0px;margin-left:4px;&quot;&gt;+ debitarValor(quant:.):.&lt;/p&gt;" style="verticalAlign=top;align=left;overflow=fill;fontSize=12;fontFamily=Helvetica;html=1;" parent="WIyWlLk6GJQsqaUBKTNV-1" vertex="1">
          <mxGeometry x="250" y="529" width="240" height="160" as="geometry" />
        </mxCell>
        <mxCell id="RDTARKWvVBVLJ8gn_Zw1-29" value="&lt;p style=&quot;margin:0px;margin-top:4px;text-align:center;&quot;&gt;&lt;i&gt;&amp;lt;&amp;lt;&lt;/i&gt;entity&lt;i&gt;&amp;gt;&amp;gt;&lt;/i&gt;&lt;br&gt;&lt;b&gt;Banco&lt;/b&gt;&lt;/p&gt;&lt;hr size=&quot;1&quot;&gt;&lt;p style=&quot;margin:0px;margin-left:4px;&quot;&gt;- cod:.&lt;/p&gt;&lt;p style=&quot;margin:0px;margin-left:4px;&quot;&gt;- nome:.&lt;br&gt;&lt;/p&gt;&lt;hr size=&quot;1&quot;&gt;&lt;p style=&quot;margin:0px;margin-left:4px;&quot;&gt;&lt;br&gt;&lt;/p&gt;" style="verticalAlign=top;align=left;overflow=fill;fontSize=12;fontFamily=Helvetica;html=1;" parent="WIyWlLk6GJQsqaUBKTNV-1" vertex="1">
          <mxGeometry x="390" y="369" width="90" height="116" as="geometry" />
        </mxCell>
        <mxCell id="RDTARKWvVBVLJ8gn_Zw1-35" style="edgeStyle=orthogonalEdgeStyle;rounded=0;orthogonalLoop=1;jettySize=auto;html=1;endArrow=diamondThin;endFill=0;entryX=1;entryY=0.026;entryDx=0;entryDy=0;entryPerimeter=0;startArrow=none;startFill=0;jumpSize=6;" parent="WIyWlLk6GJQsqaUBKTNV-1" source="RDTARKWvVBVLJ8gn_Zw1-32" target="RDTARKWvVBVLJ8gn_Zw1-29" edge="1">
          <mxGeometry relative="1" as="geometry">
            <mxPoint x="480" y="379" as="targetPoint" />
            <Array as="points">
              <mxPoint x="550" y="372" />
              <mxPoint x="550" y="372" />
            </Array>
          </mxGeometry>
        </mxCell>
        <mxCell id="RDTARKWvVBVLJ8gn_Zw1-40" value="" style="edgeStyle=orthogonalEdgeStyle;rounded=0;jumpSize=6;orthogonalLoop=1;jettySize=auto;html=1;startArrow=none;startFill=0;endArrow=diamondThin;endFill=0;startSize=0;sourcePerimeterSpacing=0;strokeWidth=1;" parent="WIyWlLk6GJQsqaUBKTNV-1" source="RDTARKWvVBVLJ8gn_Zw1-32" target="RDTARKWvVBVLJ8gn_Zw1-37" edge="1">
          <mxGeometry relative="1" as="geometry">
            <Array as="points">
              <mxPoint x="615" y="409" />
              <mxPoint x="615" y="409" />
            </Array>
          </mxGeometry>
        </mxCell>
        <mxCell id="ReETAt5n-PPbE5-SFQhU-1" value="" style="edgeStyle=orthogonalEdgeStyle;rounded=0;orthogonalLoop=1;jettySize=auto;html=1;endArrow=none;endFill=0;" parent="WIyWlLk6GJQsqaUBKTNV-1" source="RDTARKWvVBVLJ8gn_Zw1-32" target="ReETAt5n-PPbE5-SFQhU-0" edge="1">
          <mxGeometry relative="1" as="geometry">
            <Array as="points">
              <mxPoint x="840" y="274" />
              <mxPoint x="840" y="274" />
            </Array>
          </mxGeometry>
        </mxCell>
        <mxCell id="RDTARKWvVBVLJ8gn_Zw1-32" value="&lt;p style=&quot;margin:0px;margin-top:4px;text-align:center;&quot;&gt;&lt;i&gt;&amp;lt;&amp;lt;&lt;/i&gt;entity&lt;i&gt;&amp;gt;&amp;gt;&lt;/i&gt;&lt;br&gt;&lt;b&gt;Conta&lt;/b&gt;&lt;/p&gt;&lt;hr size=&quot;1&quot;&gt;&lt;p style=&quot;margin:0px;margin-left:4px;&quot;&gt;- senha:.&lt;/p&gt;&lt;p style=&quot;margin:0px;margin-left:4px;&quot;&gt;- numero:.&lt;/p&gt;&lt;p style=&quot;margin:0px;margin-left:4px;&quot;&gt;- saldo:.&lt;/p&gt;&lt;p style=&quot;margin:0px;margin-left:4px;&quot;&gt;- state: State&lt;/p&gt;&lt;hr size=&quot;1&quot;&gt;&lt;p style=&quot;margin:0px;margin-left:4px;&quot;&gt;+ verificarSenha(senha:.):.&lt;br&gt;+ obterStatus():.&lt;/p&gt;&lt;p style=&quot;margin:0px;margin-left:4px;&quot;&gt;+ setState(conta: Conta)&lt;/p&gt;&lt;p style=&quot;margin:0px;margin-left:4px;&quot;&gt;+ obterSaldo():.&lt;/p&gt;&lt;p style=&quot;margin:0px;margin-left:4px;&quot;&gt;+ debitar(quant:.):.&lt;/p&gt;&lt;p style=&quot;margin:0px;margin-left:4px;&quot;&gt;+ desativar():.&lt;/p&gt;&lt;p style=&quot;margin:0px;margin-left:4px;&quot;&gt;+ depositar():.&lt;/p&gt;&lt;p style=&quot;margin:0px;margin-left:4px;&quot;&gt;+ ativar():.&lt;/p&gt;" style="verticalAlign=top;align=left;overflow=fill;fontSize=12;fontFamily=Helvetica;html=1;" parent="WIyWlLk6GJQsqaUBKTNV-1" vertex="1">
          <mxGeometry x="570" y="159" width="210" height="241" as="geometry" />
        </mxCell>
        <mxCell id="RDTARKWvVBVLJ8gn_Zw1-39" value="" style="edgeStyle=orthogonalEdgeStyle;rounded=0;jumpSize=6;orthogonalLoop=1;jettySize=auto;html=1;startArrow=none;startFill=0;endArrow=diamondThin;endFill=0;startSize=0;sourcePerimeterSpacing=0;strokeWidth=1;" parent="WIyWlLk6GJQsqaUBKTNV-1" source="RDTARKWvVBVLJ8gn_Zw1-37" target="RDTARKWvVBVLJ8gn_Zw1-29" edge="1">
          <mxGeometry relative="1" as="geometry">
            <Array as="points">
              <mxPoint x="500" y="449" />
              <mxPoint x="500" y="449" />
            </Array>
          </mxGeometry>
        </mxCell>
        <mxCell id="RDTARKWvVBVLJ8gn_Zw1-37" value="&lt;p style=&quot;margin:0px;margin-top:4px;text-align:center;&quot;&gt;&lt;i&gt;&amp;lt;&amp;lt;&lt;/i&gt;entity&lt;i&gt;&amp;gt;&amp;gt;&lt;/i&gt;&lt;br&gt;&lt;b&gt;FichaCliente&lt;/b&gt;&lt;/p&gt;&lt;hr size=&quot;1&quot;&gt;&lt;p style=&quot;margin:0px;margin-left:4px;&quot;&gt;- nome:.&lt;/p&gt;&lt;p style=&quot;margin:0px;margin-left:4px;&quot;&gt;- RG:.&lt;br&gt;&lt;/p&gt;&lt;p style=&quot;margin:0px;margin-left:4px;&quot;&gt;- CPF:.&lt;/p&gt;&lt;hr size=&quot;1&quot;&gt;&lt;p style=&quot;margin:0px;margin-left:4px;&quot;&gt;&lt;br&gt;&lt;/p&gt;" style="verticalAlign=top;align=left;overflow=fill;fontSize=12;fontFamily=Helvetica;html=1;" parent="WIyWlLk6GJQsqaUBKTNV-1" vertex="1">
          <mxGeometry x="570" y="435" width="90" height="116" as="geometry" />
        </mxCell>
        <mxCell id="RDTARKWvVBVLJ8gn_Zw1-41" value="Exercício 2 - Padrão State" style="text;align=center;fontStyle=1;verticalAlign=middle;spacingLeft=3;spacingRight=3;strokeColor=none;rotatable=0;points=[[0,0.5],[1,0.5]];portConstraint=eastwest;fontSize=40;labelBorderColor=none;fillColor=none;strokeWidth=0;" parent="WIyWlLk6GJQsqaUBKTNV-1" vertex="1">
          <mxGeometry x="320" y="20" width="520" height="60" as="geometry" />
        </mxCell>
        <mxCell id="ReETAt5n-PPbE5-SFQhU-0" value="&lt;p style=&quot;margin:0px;margin-top:4px;text-align:center;&quot;&gt;&lt;i&gt;&amp;lt;&amp;lt;&lt;/i&gt;interface&lt;i&gt;&amp;gt;&amp;gt;&lt;/i&gt;&lt;br&gt;&lt;b&gt;State&lt;/b&gt;&lt;/p&gt;&lt;hr size=&quot;1&quot;&gt;&lt;p style=&quot;margin:0px;margin-left:4px;&quot;&gt;- conta: Conta&lt;/p&gt;&lt;hr size=&quot;1&quot;&gt;&lt;p style=&quot;margin:0px;margin-left:4px;&quot;&gt;&lt;span style=&quot;background-color: initial;&quot;&gt;+ debitar(quant:.):.&lt;/span&gt;&lt;/p&gt;" style="verticalAlign=top;align=left;overflow=fill;fontSize=12;fontFamily=Helvetica;html=1;" parent="WIyWlLk6GJQsqaUBKTNV-1" vertex="1">
          <mxGeometry x="850" y="188.5" width="210" height="111.5" as="geometry" />
        </mxCell>
        <mxCell id="ReETAt5n-PPbE5-SFQhU-12" style="edgeStyle=orthogonalEdgeStyle;rounded=0;orthogonalLoop=1;jettySize=auto;html=1;entryX=0.25;entryY=1;entryDx=0;entryDy=0;endArrow=block;endFill=0;dashed=1;" parent="WIyWlLk6GJQsqaUBKTNV-1" source="ReETAt5n-PPbE5-SFQhU-4" target="ReETAt5n-PPbE5-SFQhU-0" edge="1">
          <mxGeometry relative="1" as="geometry">
            <Array as="points">
              <mxPoint x="903" y="400" />
              <mxPoint x="903" y="400" />
            </Array>
          </mxGeometry>
        </mxCell>
        <mxCell id="ReETAt5n-PPbE5-SFQhU-4" value="Ativa" style="swimlane;fontStyle=1;align=center;verticalAlign=top;childLayout=stackLayout;horizontal=1;startSize=26;horizontalStack=0;resizeParent=1;resizeParentMax=0;resizeLast=0;collapsible=1;marginBottom=0;" parent="WIyWlLk6GJQsqaUBKTNV-1" vertex="1">
          <mxGeometry x="800" y="337" width="160" height="86" as="geometry" />
        </mxCell>
        <mxCell id="ReETAt5n-PPbE5-SFQhU-5" value="- conta: Conta" style="text;strokeColor=none;fillColor=none;align=left;verticalAlign=top;spacingLeft=4;spacingRight=4;overflow=hidden;rotatable=0;points=[[0,0.5],[1,0.5]];portConstraint=eastwest;" parent="ReETAt5n-PPbE5-SFQhU-4" vertex="1">
          <mxGeometry y="26" width="160" height="26" as="geometry" />
        </mxCell>
        <mxCell id="ReETAt5n-PPbE5-SFQhU-6" value="" style="line;strokeWidth=1;fillColor=none;align=left;verticalAlign=middle;spacingTop=-1;spacingLeft=3;spacingRight=3;rotatable=0;labelPosition=right;points=[];portConstraint=eastwest;" parent="ReETAt5n-PPbE5-SFQhU-4" vertex="1">
          <mxGeometry y="52" width="160" height="8" as="geometry" />
        </mxCell>
        <mxCell id="ReETAt5n-PPbE5-SFQhU-15" value="+ debitar(quant: float)" style="text;strokeColor=none;fillColor=none;align=left;verticalAlign=top;spacingLeft=4;spacingRight=4;overflow=hidden;rotatable=0;points=[[0,0.5],[1,0.5]];portConstraint=eastwest;" parent="ReETAt5n-PPbE5-SFQhU-4" vertex="1">
          <mxGeometry y="60" width="160" height="26" as="geometry" />
        </mxCell>
        <mxCell id="ReETAt5n-PPbE5-SFQhU-13" style="edgeStyle=orthogonalEdgeStyle;rounded=0;orthogonalLoop=1;jettySize=auto;html=1;entryX=0.75;entryY=1;entryDx=0;entryDy=0;endArrow=block;endFill=0;dashed=1;" parent="WIyWlLk6GJQsqaUBKTNV-1" source="ReETAt5n-PPbE5-SFQhU-8" target="ReETAt5n-PPbE5-SFQhU-0" edge="1">
          <mxGeometry relative="1" as="geometry">
            <Array as="points">
              <mxPoint x="1008" y="390" />
              <mxPoint x="1008" y="390" />
            </Array>
          </mxGeometry>
        </mxCell>
        <mxCell id="ReETAt5n-PPbE5-SFQhU-23" value="" style="edgeStyle=orthogonalEdgeStyle;rounded=0;orthogonalLoop=1;jettySize=auto;html=1;dashed=1;endArrow=none;endFill=0;entryX=0.846;entryY=-0.005;entryDx=0;entryDy=0;entryPerimeter=0;" parent="WIyWlLk6GJQsqaUBKTNV-1" source="ReETAt5n-PPbE5-SFQhU-8" target="ReETAt5n-PPbE5-SFQhU-22" edge="1">
          <mxGeometry relative="1" as="geometry">
            <mxPoint x="1050" y="570" as="targetPoint" />
            <Array as="points" />
          </mxGeometry>
        </mxCell>
        <mxCell id="ReETAt5n-PPbE5-SFQhU-8" value="Inativa" style="swimlane;fontStyle=1;align=center;verticalAlign=top;childLayout=stackLayout;horizontal=1;startSize=26;horizontalStack=0;resizeParent=1;resizeParentMax=0;resizeLast=0;collapsible=1;marginBottom=0;" parent="WIyWlLk6GJQsqaUBKTNV-1" vertex="1">
          <mxGeometry x="980" y="337" width="160" height="86" as="geometry" />
        </mxCell>
        <mxCell id="ReETAt5n-PPbE5-SFQhU-9" value="- conta: Conta" style="text;strokeColor=none;fillColor=none;align=left;verticalAlign=top;spacingLeft=4;spacingRight=4;overflow=hidden;rotatable=0;points=[[0,0.5],[1,0.5]];portConstraint=eastwest;" parent="ReETAt5n-PPbE5-SFQhU-8" vertex="1">
          <mxGeometry y="26" width="160" height="26" as="geometry" />
        </mxCell>
        <mxCell id="ReETAt5n-PPbE5-SFQhU-10" value="" style="line;strokeWidth=1;fillColor=none;align=left;verticalAlign=middle;spacingTop=-1;spacingLeft=3;spacingRight=3;rotatable=0;labelPosition=right;points=[];portConstraint=eastwest;" parent="ReETAt5n-PPbE5-SFQhU-8" vertex="1">
          <mxGeometry y="52" width="160" height="8" as="geometry" />
        </mxCell>
        <mxCell id="ReETAt5n-PPbE5-SFQhU-19" value="+ debitar()" style="text;strokeColor=none;fillColor=none;align=left;verticalAlign=top;spacingLeft=4;spacingRight=4;overflow=hidden;rotatable=0;points=[[0,0.5],[1,0.5]];portConstraint=eastwest;" parent="ReETAt5n-PPbE5-SFQhU-8" vertex="1">
          <mxGeometry y="60" width="160" height="26" as="geometry" />
        </mxCell>
        <mxCell id="ReETAt5n-PPbE5-SFQhU-22" value="public debitar(){&lt;br&gt;&amp;nbsp; &amp;nbsp; System.out.println(&quot;Operação não permitida. Conta inativa. Operação será liberada quando o saldo for positivo.&quot;)&lt;br&gt;}" style="shape=note;whiteSpace=wrap;html=1;backgroundOutline=1;darkOpacity=0.05;align=left;" parent="WIyWlLk6GJQsqaUBKTNV-1" vertex="1">
          <mxGeometry x="510" y="574" width="650" height="70" as="geometry" />
        </mxCell>
        <mxCell id="s_5iIo6H0aIoNs8br0N9-2" style="edgeStyle=orthogonalEdgeStyle;rounded=0;orthogonalLoop=1;jettySize=auto;html=1;entryX=0.881;entryY=1;entryDx=0;entryDy=0;entryPerimeter=0;endArrow=none;endFill=0;dashed=1;" edge="1" parent="WIyWlLk6GJQsqaUBKTNV-1" source="s_5iIo6H0aIoNs8br0N9-0" target="RDTARKWvVBVLJ8gn_Zw1-32">
          <mxGeometry relative="1" as="geometry" />
        </mxCell>
        <mxCell id="s_5iIo6H0aIoNs8br0N9-0" value="If(saldo &amp;lt;= 0){&lt;br&gt;&amp;nbsp; &amp;nbsp; state = Inativa&lt;br&gt;else&lt;br&gt;&amp;nbsp; &amp;nbsp; state = ativa" style="shape=note;whiteSpace=wrap;html=1;backgroundOutline=1;darkOpacity=0.05;align=left;" vertex="1" parent="WIyWlLk6GJQsqaUBKTNV-1">
          <mxGeometry x="690" y="443" width="130" height="67" as="geometry" />
        </mxCell>
      </root>
    </mxGraphModel>
  </diagram>
</mxfile>
